<svg id="svg" version="1.1" xmlns="http://www.w3.org/2000/svg" xmlns:xlink="http://www.w3.org/1999/xlink" width="400" height="125.28493035035879" viewBox="0, 0, 400,125.28493035035879"><g id="svgg"><path id="path0" d="M165.315 0.384 C 163.612 1.100,162.282 2.360,161.527 3.971 L 161.083 4.917 161.083 23.387 L 161.083 41.856 160.125 41.745 C 158.810 41.593,158.919 41.765,160.837 42.877 C 161.749 43.405,163.399 44.530,164.505 45.377 C 165.611 46.224,166.795 47.116,167.137 47.360 C 168.608 48.413,174.705 54.909,174.984 55.721 C 175.021 55.829,175.369 56.332,175.758 56.839 C 176.146 57.347,177.142 58.809,177.970 60.089 C 178.799 61.369,179.600 62.553,179.750 62.720 C 179.901 62.887,180.587 64.106,181.276 65.428 L 182.528 67.833 185.264 67.833 C 187.164 67.833,188.000 67.777,188.000 67.648 C 188.000 67.108,182.843 59.927,181.251 58.250 C 180.816 57.792,179.690 56.554,178.750 55.500 C 175.769 52.157,172.663 49.288,169.041 46.531 C 168.296 45.964,167.646 45.500,167.597 45.500 C 167.549 45.500,166.719 44.980,165.754 44.343 C 164.788 43.707,163.624 42.983,163.165 42.733 C 162.109 42.158,162.083 42.165,164.208 42.427 C 167.504 42.833,170.787 44.749,179.333 51.251 C 182.168 53.408,186.817 58.028,190.480 62.327 C 191.454 63.469,192.445 64.594,192.684 64.827 C 192.923 65.059,193.551 65.831,194.079 66.542 L 195.040 67.833 197.770 67.833 C 199.545 67.833,200.500 67.773,200.500 67.660 C 200.500 67.148,194.796 61.440,190.596 57.749 C 189.136 56.466,187.599 55.091,187.179 54.693 C 186.377 53.931,181.405 50.108,180.780 49.773 C 180.580 49.666,179.329 48.855,178.000 47.972 C 176.671 47.089,174.383 45.677,172.917 44.836 C 171.450 43.994,170.400 43.346,170.583 43.397 C 170.767 43.447,171.292 43.569,171.750 43.668 C 177.157 44.836,182.076 47.201,190.217 52.547 C 191.574 53.438,192.717 54.167,192.758 54.167 C 192.874 54.167,194.563 55.368,194.750 55.583 C 194.842 55.688,196.339 56.846,198.077 58.156 C 201.816 60.972,205.289 63.768,207.973 66.120 L 209.917 67.824 212.639 67.829 C 214.275 67.831,215.339 67.771,215.306 67.676 C 215.194 67.360,206.907 61.000,206.606 61.000 C 206.554 61.000,205.703 60.424,204.714 59.720 C 203.725 59.017,201.792 57.701,200.417 56.797 C 199.042 55.892,197.767 55.017,197.583 54.852 C 197.183 54.490,194.915 53.061,193.655 52.377 C 193.157 52.107,191.550 51.195,190.083 50.351 C 188.617 49.507,186.316 48.276,184.970 47.617 C 183.625 46.957,182.519 46.371,182.512 46.315 C 182.493 46.150,187.069 43.950,189.250 43.075 C 191.487 42.178,191.429 42.207,191.282 42.060 C 190.959 41.737,184.811 43.328,180.590 44.827 C 179.521 45.207,178.942 45.328,178.549 45.255 L 178.000 45.152 178.000 36.659 L 178.000 28.167 186.000 28.167 L 194.000 28.167 194.000 34.856 L 194.000 41.546 195.042 41.444 C 195.615 41.388,197.171 41.259,198.500 41.157 C 199.829 41.056,201.160 40.938,201.458 40.896 L 202.000 40.818 202.000 35.076 L 202.000 29.333 203.250 29.333 C 203.938 29.333,204.500 29.287,204.500 29.230 C 204.500 29.070,203.332 26.471,201.201 21.889 L 199.250 17.696 196.423 15.979 C 194.868 15.035,193.245 14.081,192.816 13.860 C 192.388 13.640,191.829 13.280,191.575 13.062 C 190.978 12.549,186.258 9.667,186.014 9.667 C 185.752 9.667,180.999 12.648,180.519 13.114 C 180.300 13.326,180.038 13.502,179.936 13.505 C 179.834 13.507,178.180 14.501,176.262 15.713 L 172.774 17.917 170.054 23.309 C 166.842 29.676,166.962 29.167,168.667 29.167 L 170.000 29.167 170.000 36.184 C 170.000 42.515,169.974 43.192,169.736 43.101 C 169.591 43.046,169.441 43.000,169.403 43.000 C 169.365 43.000,169.333 40.075,169.333 36.500 L 169.333 30.000 167.594 30.000 L 165.855 30.000 166.682 28.234 C 167.137 27.262,167.601 26.372,167.713 26.256 C 167.825 26.140,168.884 24.098,170.066 21.718 L 172.216 17.391 173.775 16.405 C 175.220 15.492,175.585 15.167,175.167 15.167 C 175.059 15.167,175.000 13.482,175.000 10.447 C 175.000 4.448,174.785 3.592,172.823 1.756 C 171.006 0.057,167.581 -0.570,165.315 0.384 M183.917 9.606 C 182.817 10.302,181.892 10.938,181.861 11.020 C 181.830 11.102,181.736 11.126,181.651 11.074 C 181.567 11.022,181.453 11.096,181.398 11.238 C 181.343 11.381,181.231 11.456,181.148 11.405 C 181.065 11.354,180.953 11.429,180.898 11.572 C 180.843 11.715,180.731 11.790,180.649 11.739 C 180.567 11.688,180.500 11.734,180.500 11.841 C 180.500 12.122,180.651 12.042,183.460 10.276 L 186.004 8.676 187.261 9.440 C 187.953 9.860,188.565 10.157,188.621 10.102 C 188.754 9.969,188.783 9.991,187.312 9.102 C 185.786 8.179,186.293 8.104,183.917 9.606 M188.833 10.298 C 188.833 10.421,191.101 11.853,192.583 12.667 C 193.690 13.274,194.411 13.725,194.513 13.871 C 194.566 13.948,195.790 14.739,197.233 15.630 L 199.856 17.250 202.286 22.500 C 203.623 25.387,204.902 28.158,205.128 28.657 C 205.355 29.156,205.657 29.681,205.800 29.824 C 206.036 30.059,205.909 30.088,204.447 30.131 L 202.833 30.179 202.833 35.506 L 202.833 40.833 204.125 40.856 C 204.835 40.869,205.229 40.911,205.000 40.951 C 200.176 41.793,193.379 44.082,189.074 46.316 C 186.189 47.813,186.083 47.959,187.536 48.446 C 188.112 48.639,189.039 48.965,189.597 49.171 L 190.610 49.546 191.585 48.923 C 195.732 46.270,202.737 43.416,208.000 42.235 C 209.146 41.978,210.121 41.718,210.167 41.656 C 210.511 41.192,213.566 40.999,216.622 41.247 C 218.341 41.386,219.841 41.500,219.957 41.500 C 220.121 41.500,220.167 40.410,220.167 36.500 L 220.167 31.500 221.167 31.500 C 221.791 31.500,222.167 31.430,222.167 31.314 C 222.167 31.109,219.971 26.390,218.617 23.686 L 217.750 21.956 212.651 18.848 L 207.552 15.740 203.151 14.514 C 200.731 13.840,198.525 13.189,198.250 13.067 C 197.975 12.945,195.987 12.354,193.833 11.753 C 191.679 11.153,189.718 10.550,189.474 10.414 C 188.974 10.134,188.833 10.109,188.833 10.298 M178.671 12.925 C 178.353 13.150,178.154 13.333,178.229 13.333 C 178.452 13.333,179.333 12.772,179.333 12.631 C 179.333 12.457,179.336 12.456,178.671 12.925 M177.276 13.815 C 177.015 13.987,176.874 14.172,176.963 14.227 C 177.052 14.282,177.326 14.141,177.571 13.914 C 178.098 13.425,177.945 13.374,177.276 13.815 M175.958 14.626 C 175.503 14.909,175.358 15.167,175.655 15.167 C 175.740 15.167,175.922 15.054,176.060 14.917 C 176.197 14.779,176.390 14.667,176.488 14.667 C 176.586 14.667,176.667 14.592,176.667 14.500 C 176.667 14.266,176.488 14.298,175.958 14.626 M188.795 21.542 L 188.750 24.917 186.042 24.962 L 183.333 25.008 183.333 21.587 L 183.333 18.167 186.087 18.167 L 188.840 18.167 188.795 21.542 M148.006 41.625 C 148.010 41.785,148.353 42.179,148.770 42.500 C 149.821 43.310,151.700 45.329,152.880 46.917 C 153.425 47.650,153.930 48.288,154.003 48.333 C 154.249 48.490,155.716 51.080,156.457 52.667 C 158.201 56.404,159.716 62.175,160.099 66.542 L 160.213 67.833 163.118 67.833 C 165.806 67.833,166.016 67.812,165.936 67.542 C 165.888 67.381,165.660 66.500,165.430 65.583 C 163.015 55.981,158.040 47.936,151.088 42.393 C 149.650 41.247,147.989 40.833,148.006 41.625 M154.449 42.356 C 159.159 45.617,164.434 51.755,166.460 56.333 C 166.683 56.837,166.930 57.290,167.009 57.339 C 167.495 57.639,169.595 62.782,170.539 65.982 L 171.083 67.829 173.875 67.831 C 176.197 67.833,176.667 67.793,176.667 67.593 C 176.667 66.257,171.050 56.342,168.493 53.167 C 166.255 50.386,161.549 45.758,159.060 43.888 C 156.162 41.712,155.829 41.540,154.250 41.408 L 152.917 41.296 154.449 42.356 M156.833 41.667 C 156.833 41.758,157.016 41.833,157.240 41.833 C 157.464 41.833,157.693 41.758,157.750 41.667 C 157.810 41.569,157.641 41.500,157.343 41.500 C 157.063 41.500,156.833 41.575,156.833 41.667 M219.417 41.685 C 208.608 43.144,201.883 45.499,195.912 49.915 C 194.338 51.079,194.283 50.953,196.839 52.067 L 199.012 53.014 200.464 51.773 C 206.181 46.890,215.375 43.335,224.708 42.400 C 226.318 42.239,226.104 42.083,223.958 41.856 C 220.879 41.530,220.632 41.520,219.417 41.685 M226.500 42.333 C 226.500 42.425,226.608 42.500,226.740 42.500 C 226.872 42.500,227.027 42.425,227.083 42.333 C 227.140 42.242,227.032 42.167,226.843 42.167 C 226.654 42.167,226.500 42.242,226.500 42.333 M227.667 42.500 C 227.667 42.592,227.817 42.667,228.000 42.667 C 228.183 42.667,228.333 42.592,228.333 42.500 C 228.333 42.408,228.183 42.333,228.000 42.333 C 227.817 42.333,227.667 42.408,227.667 42.500 M229.000 42.667 C 229.000 42.758,229.112 42.833,229.250 42.833 C 229.387 42.833,229.500 42.758,229.500 42.667 C 229.500 42.575,229.387 42.500,229.250 42.500 C 229.112 42.500,229.000 42.575,229.000 42.667 M230.227 42.917 C 230.303 43.115,230.176 43.167,229.615 43.167 C 220.549 43.167,208.731 48.087,204.060 53.807 C 203.219 54.837,203.177 55.042,203.756 55.306 C 203.989 55.412,204.270 55.572,204.381 55.662 C 204.661 55.890,208.127 57.667,208.287 57.665 C 208.408 57.664,208.661 57.253,209.562 55.597 C 210.584 53.717,214.604 50.200,217.580 48.582 C 221.725 46.330,230.636 43.833,234.535 43.833 C 234.944 43.833,234.590 43.335,234.125 43.257 C 232.254 42.943,231.393 42.854,231.053 42.939 C 230.823 42.997,230.667 42.961,230.667 42.851 C 230.667 42.750,230.546 42.667,230.399 42.667 C 230.229 42.667,230.166 42.758,230.227 42.917 M232.083 45.515 C 221.578 47.503,215.035 52.860,214.075 60.259 L 213.966 61.100 215.858 62.342 C 216.899 63.025,218.050 63.761,218.417 63.978 C 218.783 64.196,219.357 64.589,219.691 64.853 C 220.607 65.577,220.636 65.531,220.540 63.504 C 220.195 56.220,224.528 50.537,232.554 47.745 L 234.583 47.039 234.633 46.103 C 234.693 44.991,234.765 45.007,232.083 45.515 M148.000 48.581 C 148.000 51.031,148.046 51.486,148.424 52.789 C 149.376 56.065,149.928 61.404,149.687 65.000 C 149.507 67.687,149.682 67.824,153.305 67.830 L 155.527 67.833 155.424 66.708 C 155.165 63.879,154.942 62.167,154.831 62.167 C 154.764 62.167,154.662 61.810,154.603 61.375 C 154.057 57.336,151.685 51.060,149.328 47.422 C 147.995 45.365,148.000 45.360,148.000 48.581 M233.236 50.355 C 227.962 54.038,226.922 59.558,230.256 66.178 C 230.586 66.833,230.815 67.473,230.766 67.601 C 230.653 67.895,230.699 67.893,231.786 67.550 C 234.571 66.672,234.667 66.327,234.667 57.197 C 234.667 48.684,234.789 49.271,233.236 50.355 M148.000 64.475 C 148.000 64.816,148.381 65.667,148.534 65.667 C 148.627 65.667,148.656 65.547,148.600 65.401 C 148.544 65.255,148.453 64.955,148.398 64.735 C 148.304 64.360,148.000 64.161,148.000 64.475 M148.698 66.010 C 148.738 66.131,148.869 66.262,148.990 66.302 C 149.115 66.344,149.177 66.281,149.135 66.156 C 149.095 66.036,148.964 65.905,148.844 65.865 C 148.719 65.823,148.656 65.885,148.698 66.010 M390.866 71.916 C 382.753 74.195,384.535 85.750,393.000 85.750 C 397.460 85.750,399.917 83.234,399.917 78.667 C 399.917 73.683,395.720 70.552,390.866 71.916 M116.000 72.050 C 109.401 73.561,106.832 84.224,110.741 93.877 C 111.809 96.513,114.870 102.497,115.323 102.833 C 116.076 103.393,122.397 114.785,122.900 116.489 C 124.114 120.605,121.018 122.473,118.528 119.127 C 117.668 117.972,115.972 114.657,115.318 112.853 C 114.248 109.903,114.065 109.750,111.610 109.750 C 109.901 109.750,109.394 110.078,109.560 111.075 C 109.607 111.355,110.073 114.471,110.595 118.000 C 111.772 125.943,111.486 125.167,113.233 125.167 C 114.728 125.167,115.492 124.813,115.750 124.001 C 115.932 123.428,116.446 123.441,117.545 124.049 C 123.359 127.264,130.067 123.637,131.429 116.543 C 132.116 112.962,131.796 107.939,130.650 104.333 C 130.250 103.075,129.199 100.624,129.006 100.501 C 128.933 100.455,128.255 99.179,127.499 97.667 C 126.282 95.232,125.220 93.320,121.997 87.751 C 118.728 82.105,117.451 78.213,118.433 76.888 C 119.785 75.066,122.377 77.861,124.803 83.758 C 125.849 86.300,126.304 86.664,128.438 86.666 C 129.931 86.667,130.500 86.515,130.708 86.060 C 130.892 85.655,129.269 74.354,129.000 74.167 C 128.934 74.121,128.829 73.737,128.766 73.314 C 128.471 71.312,125.662 71.196,124.341 73.131 L 123.778 73.956 122.584 73.312 C 120.204 72.029,117.965 71.599,116.000 72.050 M368.583 72.064 C 362.486 73.547,359.803 83.453,363.017 92.615 C 364.186 95.947,366.651 100.755,369.923 106.083 C 376.376 116.594,377.237 119.137,374.825 120.562 C 372.737 121.795,370.503 119.325,368.180 113.212 C 366.869 109.762,366.963 109.860,364.833 109.712 C 361.928 109.511,362.000 109.111,363.338 118.030 C 364.500 125.775,364.273 125.215,366.214 125.140 C 367.805 125.079,367.779 125.093,368.674 123.822 L 368.931 123.456 370.580 124.270 L 372.230 125.083 374.740 125.083 C 378.617 125.083,381.188 123.416,382.980 119.741 C 384.835 115.935,384.794 108.462,382.888 103.341 C 381.757 100.303,375.303 88.181,374.120 86.874 C 373.713 86.424,371.579 81.906,371.097 80.472 C 370.446 78.538,370.591 76.757,371.424 76.437 C 373.020 75.824,374.990 77.943,376.906 82.333 C 378.738 86.532,378.709 86.499,380.735 86.622 C 383.873 86.812,383.790 87.369,382.150 77.167 C 381.264 71.657,381.434 72.054,379.895 71.909 C 378.356 71.765,378.046 71.891,377.223 72.992 C 376.509 73.949,376.509 73.949,375.689 73.505 C 372.968 72.031,370.651 71.561,368.583 72.064 M0.750 72.780 C -0.568 73.102,-0.273 76.697,1.166 77.853 C 2.428 78.867,2.334 77.168,2.331 98.867 C 2.328 120.759,2.455 118.825,0.952 119.967 L -0.010 120.698 0.037 122.641 L 0.083 124.583 8.083 124.583 L 16.083 124.583 16.227 123.625 C 16.458 122.086,16.258 121.281,15.405 120.321 L 14.667 119.489 14.667 109.244 L 14.667 99.000 17.000 99.000 L 19.333 99.000 19.333 109.100 L 19.333 119.200 18.566 119.975 C 17.504 121.046,17.126 122.829,17.663 124.239 L 17.825 124.667 25.895 124.667 C 33.099 124.667,33.975 124.638,34.066 124.403 C 34.121 124.258,34.167 123.442,34.167 122.590 L 34.167 121.041 33.087 120.093 C 31.533 118.729,31.645 120.483,31.701 98.305 L 31.750 78.693 32.167 78.247 C 32.396 78.002,32.857 77.661,33.191 77.489 C 34.277 76.932,34.333 76.811,34.333 75.020 C 34.333 72.515,35.159 72.759,26.472 72.700 C 18.625 72.648,18.072 72.676,17.925 73.139 C 17.572 74.251,17.869 77.333,18.329 77.333 C 18.396 77.333,18.650 77.517,18.892 77.742 L 19.333 78.151 19.333 86.492 L 19.333 94.833 16.996 94.833 L 14.658 94.833 14.704 86.401 L 14.750 77.968 15.542 77.300 L 16.333 76.632 16.333 75.015 C 16.333 72.514,17.159 72.755,8.472 72.724 C 4.408 72.710,0.933 72.735,0.750 72.780 M36.171 72.996 C 35.886 73.281,35.834 73.548,35.836 74.708 C 35.839 76.700,35.871 76.764,37.200 77.434 C 38.114 77.894,38.407 78.136,38.595 78.586 C 38.894 79.302,38.958 118.622,38.661 119.177 C 38.475 119.526,37.344 120.167,36.916 120.167 C 36.243 120.167,35.886 120.876,35.762 122.458 C 35.570 124.921,34.519 124.667,44.903 124.667 L 53.794 124.667 53.895 124.292 C 54.028 123.796,53.998 121.529,53.851 121.000 C 53.774 120.719,53.358 120.356,52.576 119.885 C 50.868 118.856,51.016 120.849,51.008 98.832 C 50.999 76.450,50.873 77.878,52.903 77.304 C 54.025 76.987,54.083 76.870,54.083 74.920 C 54.083 73.719,54.017 73.118,53.867 72.967 C 53.445 72.543,36.596 72.570,36.171 72.996 M55.833 72.782 C 54.558 73.238,54.935 76.806,56.339 77.570 C 57.797 78.364,57.667 76.295,57.667 98.668 L 57.667 118.596 57.292 119.340 C 57.004 119.910,56.730 120.172,56.119 120.465 C 54.942 121.027,54.504 123.158,55.345 124.228 L 55.691 124.667 67.236 124.667 C 80.321 124.667,79.171 124.800,79.492 123.243 C 79.784 121.827,80.833 114.356,80.833 113.693 C 80.833 112.737,80.559 112.489,79.386 112.383 C 76.578 112.128,75.941 112.525,75.252 114.958 C 73.788 120.131,73.280 120.833,71.003 120.833 L 69.995 120.833 70.039 99.929 C 70.090 75.964,69.892 78.532,71.763 77.583 C 72.905 77.005,73.062 76.602,72.898 74.667 C 72.771 73.168,72.723 73.052,72.135 72.847 C 71.604 72.662,56.340 72.601,55.833 72.782 M82.388 72.834 C 81.944 73.013,81.732 74.329,81.913 75.778 C 82.039 76.790,82.376 77.240,83.513 77.917 C 84.552 78.535,84.495 77.350,84.498 98.367 C 84.500 120.866,84.595 119.714,82.674 120.580 C 81.879 120.938,81.750 121.258,81.751 122.858 C 81.752 124.848,80.533 124.667,93.901 124.664 C 100.235 124.663,105.499 124.606,105.600 124.539 C 106.424 123.989,107.912 113.216,107.241 112.659 C 106.478 112.026,103.136 112.352,102.799 113.092 C 102.697 113.316,102.560 113.500,102.495 113.500 C 102.430 113.500,102.250 113.969,102.095 114.542 C 100.642 119.902,100.014 120.833,97.852 120.833 L 96.833 120.833 96.833 99.992 C 96.833 76.334,96.693 78.468,98.295 77.700 C 99.437 77.152,99.661 76.765,99.663 75.333 C 99.665 73.839,99.416 73.023,98.896 72.825 C 98.368 72.625,82.887 72.633,82.388 72.834 M133.708 72.921 C 133.361 73.166,133.333 73.311,133.333 74.906 C 133.333 76.817,133.309 76.768,134.635 77.500 C 136.236 78.384,136.077 76.117,136.128 98.820 L 136.172 118.782 135.809 119.243 C 135.609 119.497,134.981 119.913,134.414 120.168 C 133.523 120.567,133.367 120.705,133.274 121.170 C 133.123 121.925,133.145 124.207,133.305 124.460 C 133.410 124.625,135.313 124.660,142.261 124.626 L 151.083 124.583 151.132 122.917 C 151.197 120.696,151.160 120.593,150.079 119.983 C 148.318 118.989,148.500 121.433,148.500 98.767 C 148.500 76.033,148.356 78.055,150.017 77.390 C 150.512 77.192,151.010 76.945,151.125 76.842 C 151.376 76.615,151.414 73.385,151.170 73.000 C 150.923 72.609,134.258 72.534,133.708 72.921 M153.833 72.773 C 152.868 72.936,152.714 73.013,152.529 73.421 C 152.268 73.992,152.282 76.473,152.549 77.000 C 152.680 77.258,153.083 77.546,153.613 77.757 C 154.082 77.945,154.586 78.198,154.733 78.319 C 154.975 78.520,155.000 80.387,155.000 98.312 C 154.999 120.973,155.172 118.735,153.333 119.958 C 152.069 120.800,151.926 121.130,152.040 122.952 C 152.159 124.840,151.093 124.667,162.577 124.667 C 174.678 124.667,174.761 124.654,177.920 122.416 C 183.651 118.353,186.013 110.860,185.785 97.458 C 185.658 89.965,184.986 85.803,183.254 81.780 C 181.429 77.539,177.791 74.198,173.750 73.052 C 172.797 72.781,155.234 72.535,153.833 72.773 M188.563 72.828 C 188.115 73.012,187.930 74.092,188.090 75.586 C 188.216 76.767,188.352 76.947,189.526 77.494 C 190.975 78.169,190.843 75.948,190.794 98.710 L 190.750 118.973 190.345 119.404 C 190.122 119.641,189.545 120.058,189.062 120.331 C 188.007 120.926,187.806 121.442,187.951 123.177 C 188.088 124.802,187.003 124.674,200.266 124.626 L 212.079 124.583 212.288 124.147 C 212.569 123.561,214.000 114.730,214.000 113.583 C 214.000 112.257,213.007 111.786,211.000 112.160 C 209.707 112.400,209.374 112.859,208.412 115.720 C 206.835 120.408,206.628 120.676,204.486 120.800 L 203.167 120.876 203.167 110.021 L 203.167 99.167 204.655 99.167 C 206.518 99.167,206.656 99.306,207.194 101.720 C 207.704 104.008,207.867 104.167,209.724 104.167 C 210.860 104.167,211.205 104.105,211.523 103.848 L 211.917 103.529 211.917 96.937 C 211.917 89.214,212.119 89.905,209.813 89.739 C 207.779 89.593,207.673 89.678,207.269 91.763 C 206.697 94.722,206.599 94.833,204.546 94.833 L 203.167 94.833 203.167 85.899 L 203.167 76.965 204.483 77.024 C 206.358 77.110,206.797 77.649,208.258 81.667 C 209.192 84.233,209.501 84.500,211.541 84.500 C 213.525 84.500,213.772 84.315,213.597 82.963 C 213.289 80.580,211.764 73.452,211.491 73.114 L 211.196 72.750 200.056 72.717 C 193.930 72.698,188.757 72.748,188.563 72.828 M232.400 72.903 C 231.733 73.195,231.667 73.400,231.667 75.148 C 231.667 76.828,231.757 77.008,232.920 77.638 C 233.372 77.883,233.836 78.271,233.952 78.500 C 234.299 79.188,234.260 118.460,233.912 118.956 C 233.772 119.157,233.127 119.599,232.480 119.939 C 230.985 120.724,230.650 121.649,231.174 123.537 C 231.501 124.713,231.113 124.667,240.609 124.667 C 250.656 124.667,249.667 124.912,249.667 122.417 C 249.667 120.617,249.383 120.000,248.554 120.000 C 248.152 120.000,247.034 119.355,246.761 118.965 C 246.531 118.637,246.500 117.410,246.500 108.713 L 246.500 98.833 247.422 98.833 C 249.268 98.833,249.870 99.408,250.160 101.449 C 250.498 103.828,250.773 104.083,253.000 104.083 C 255.187 104.083,255.000 104.745,255.000 97.011 C 255.000 89.175,255.149 89.756,253.140 89.754 C 250.770 89.751,250.724 89.791,250.234 92.260 C 249.818 94.353,249.463 94.720,247.767 94.806 L 246.500 94.870 246.500 85.852 L 246.500 76.833 247.458 76.834 C 249.343 76.834,249.870 77.373,251.097 80.551 C 252.604 84.451,252.733 84.583,255.055 84.583 C 257.212 84.583,257.227 84.468,255.914 77.969 C 255.203 74.457,254.917 73.343,254.659 73.085 C 254.224 72.650,233.365 72.479,232.400 72.903 M261.977 72.985 C 261.610 73.282,261.583 73.419,261.583 74.985 L 261.583 76.667 262.542 77.552 C 263.788 78.703,263.872 77.286,261.753 90.833 C 261.344 93.446,260.480 98.996,259.832 103.167 C 259.185 107.337,258.386 112.475,258.057 114.583 C 257.728 116.692,257.393 118.442,257.313 118.472 C 257.232 118.503,257.167 118.630,257.167 118.754 C 257.167 118.879,256.791 119.410,256.331 119.935 C 255.173 121.259,254.697 123.014,255.163 124.242 L 255.327 124.672 260.288 124.627 L 265.250 124.583 265.299 123.083 C 265.365 121.079,265.312 120.936,264.257 120.261 C 263.019 119.470,262.769 119.050,262.884 117.956 C 262.994 116.910,263.308 114.732,263.423 114.208 L 263.506 113.833 267.333 113.833 L 271.160 113.833 271.249 114.208 C 271.443 115.024,271.831 117.956,271.832 118.612 C 271.833 119.401,271.364 120.081,270.415 120.668 C 269.591 121.177,269.201 123.026,269.663 124.239 L 269.825 124.667 277.725 124.667 C 286.901 124.667,286.030 124.881,286.062 122.613 L 286.083 121.059 285.303 120.190 C 284.874 119.713,284.297 118.856,284.022 118.286 C 283.481 117.166,283.634 118.063,281.513 103.667 C 280.966 99.954,280.032 93.617,279.437 89.583 C 278.842 85.550,278.116 80.600,277.825 78.583 C 277.200 74.263,276.885 73.241,276.071 72.901 C 275.082 72.488,262.498 72.563,261.977 72.985 M288.063 73.059 C 287.615 73.444,287.579 73.566,287.524 74.906 C 287.444 76.853,287.518 77.072,288.373 77.411 C 290.309 78.180,290.196 76.784,290.135 99.167 C 290.077 120.660,290.188 118.914,288.824 119.780 C 287.670 120.513,287.667 120.520,287.667 122.296 C 287.667 123.501,287.734 124.022,287.926 124.296 L 288.186 124.667 295.811 124.667 C 304.795 124.667,304.057 124.836,304.142 122.760 C 304.219 120.893,304.130 120.599,303.243 119.791 L 302.500 119.115 302.500 110.534 L 302.500 101.952 303.708 102.062 C 305.325 102.208,306.288 102.706,306.833 103.676 L 307.250 104.417 307.344 112.667 C 307.411 118.486,307.498 121.099,307.642 121.535 C 307.982 122.567,308.550 123.429,309.309 124.063 L 310.032 124.667 315.437 124.667 L 320.842 124.667 321.018 124.208 C 321.114 123.956,321.169 123.094,321.138 122.293 L 321.083 120.836 320.375 120.149 L 319.667 119.462 319.665 115.106 C 319.663 107.395,319.118 105.223,316.558 102.728 C 315.493 101.690,313.348 100.460,312.208 100.233 C 311.427 100.077,311.528 99.940,312.793 99.444 C 322.303 95.713,323.241 81.049,314.352 75.065 C 310.987 72.799,310.844 72.778,298.730 72.706 L 288.543 72.646 288.063 73.059 M323.744 72.901 C 323.471 73.100,323.402 73.418,323.315 74.861 C 323.192 76.911,323.209 76.969,324.159 77.691 C 325.727 78.883,325.583 76.704,325.583 99.358 L 325.583 119.299 324.637 120.291 C 323.596 121.382,323.383 121.978,323.563 123.292 C 323.756 124.699,323.642 124.667,328.439 124.667 L 332.659 124.667 332.942 124.235 C 333.746 123.008,333.303 120.839,332.076 119.995 C 330.728 119.067,330.832 120.233,330.845 106.255 C 330.857 93.873,330.860 93.761,331.160 94.833 C 331.326 95.429,332.158 98.542,333.008 101.750 C 333.858 104.958,334.606 107.621,334.669 107.667 C 334.732 107.712,335.107 109.006,335.502 110.542 L 336.219 113.333 338.115 113.333 C 339.484 113.333,340.029 113.276,340.078 113.125 C 340.115 113.010,341.131 109.129,342.336 104.500 C 343.541 99.871,344.741 95.296,345.003 94.333 L 345.479 92.583 345.448 105.691 C 345.413 120.359,345.516 119.148,344.250 119.787 C 343.096 120.369,343.000 120.567,343.000 122.373 C 343.000 124.934,342.018 124.667,351.413 124.667 C 356.278 124.667,359.519 124.604,359.577 124.510 C 359.631 124.423,359.715 123.655,359.764 122.801 C 359.872 120.926,359.756 120.652,358.500 119.819 C 357.274 119.005,357.369 120.728,357.350 98.870 C 357.331 76.808,357.225 78.519,358.663 77.736 C 359.791 77.122,360.000 76.686,360.000 74.943 C 360.000 73.807,359.939 73.461,359.682 73.143 L 359.363 72.750 352.908 72.750 L 346.453 72.750 345.409 76.750 C 344.834 78.950,343.749 83.112,342.996 86.000 C 342.244 88.888,341.577 91.344,341.515 91.460 C 341.453 91.575,340.659 88.763,339.752 85.210 C 338.845 81.657,337.756 77.400,337.331 75.750 L 336.559 72.750 330.314 72.706 C 325.117 72.670,324.015 72.703,323.744 72.901 M395.110 73.925 C 399.898 76.251,398.286 84.049,393.017 84.049 C 390.995 84.049,389.310 82.956,388.415 81.064 C 386.295 76.584,390.767 71.816,395.110 73.925 M390.792 75.121 L 390.167 75.187 390.167 78.760 L 390.167 82.333 391.083 82.333 L 392.000 82.333 392.000 81.000 L 392.000 79.667 392.511 79.667 C 393.373 79.667,393.631 79.926,394.001 81.169 L 394.347 82.333 395.442 82.333 C 396.419 82.333,396.523 82.302,396.413 82.042 C 396.345 81.881,396.184 81.300,396.054 80.750 C 395.924 80.200,395.669 79.543,395.486 79.289 L 395.153 78.829 395.593 78.451 C 396.641 77.549,396.141 75.646,394.746 75.225 C 394.113 75.035,392.122 74.982,390.792 75.121 M393.630 76.759 C 394.389 77.291,393.818 78.167,392.713 78.167 C 392.169 78.167,392.167 78.164,392.167 77.333 C 392.167 76.403,392.779 76.163,393.630 76.759 M305.548 77.199 C 306.089 77.495,306.365 77.813,306.750 78.583 L 307.250 79.583 307.250 86.833 C 307.250 96.928,306.912 98.000,303.725 98.000 L 302.500 98.000 302.500 87.309 L 302.500 76.618 303.673 76.717 C 304.431 76.780,305.093 76.951,305.548 77.199 M169.417 77.018 C 170.321 77.267,171.378 78.391,171.773 79.525 C 172.241 80.869,172.253 116.074,171.786 117.904 C 171.223 120.110,170.499 120.767,168.438 120.941 L 167.167 121.049 167.167 98.941 L 167.167 76.833 167.958 76.834 C 168.394 76.835,169.050 76.918,169.417 77.018 M268.754 96.000 C 269.451 101.087,270.086 105.400,270.166 105.583 C 270.245 105.767,270.393 106.554,270.494 107.333 C 270.595 108.112,270.719 108.956,270.769 109.208 L 270.860 109.667 267.434 109.667 L 264.008 109.667 264.093 109.208 C 264.162 108.834,267.288 86.978,267.353 86.418 C 267.390 86.095,267.495 86.815,268.754 96.000 " stroke="none" fill="#fcfcfc" fill-rule="evenodd"></path><path id="path1" d="" stroke="none" fill="#100fcfc" fill-rule="evenodd"></path><path id="path2" d="" stroke="none" fill="#100fcfc" fill-rule="evenodd"></path><path id="path3" d="" stroke="none" fill="#100fcfc" fill-rule="evenodd"></path><path id="path4" d="" stroke="none" fill="#100fcfc" fill-rule="evenodd"></path><path id="path5" d="" stroke="none" fill="#100fcfc" fill-rule="evenodd"></path><path id="path6" d="" stroke="none" fill="#100fcfc" fill-rule="evenodd"></path><path id="path7" d="" stroke="none" fill="#100fcfc" fill-rule="evenodd"></path><path id="path8" d="" stroke="none" fill="#100fcfc" fill-rule="evenodd"></path></g></svg>